<mxfile host="app.diagrams.net" modified="2024-02-01T19:34:40.088Z" agent="Mozilla/5.0 (Windows NT 10.0; Win64; x64) AppleWebKit/537.36 (KHTML, like Gecko) Chrome/120.0.0.0 YaBrowser/24.1.0.0 Safari/537.36" etag="BIhZyWTFXhkXrGX5JAZ0" version="23.0.2" type="github">
  <diagram name="Страница — 1" id="iy4FejI6_0Sh6tDtgVHV">
    <mxGraphModel dx="1155" dy="653" grid="1" gridSize="10" guides="1" tooltips="1" connect="1" arrows="1" fold="1" page="1" pageScale="1" pageWidth="827" pageHeight="1169" math="0" shadow="0">
      <root>
        <mxCell id="0" />
        <mxCell id="1" parent="0" />
        <mxCell id="2a4HdgNqKfl-SDhQHy7p-7" style="edgeStyle=orthogonalEdgeStyle;rounded=0;orthogonalLoop=1;jettySize=auto;html=1;entryX=0.5;entryY=0;entryDx=0;entryDy=0;" edge="1" parent="1" source="2a4HdgNqKfl-SDhQHy7p-1" target="2a4HdgNqKfl-SDhQHy7p-3">
          <mxGeometry relative="1" as="geometry" />
        </mxCell>
        <mxCell id="2a4HdgNqKfl-SDhQHy7p-1" value="начало" style="ellipse;whiteSpace=wrap;html=1;fontSize=14;" vertex="1" parent="1">
          <mxGeometry x="300" y="50" width="80" height="40" as="geometry" />
        </mxCell>
        <mxCell id="2a4HdgNqKfl-SDhQHy7p-2" value="&lt;div style=&quot;font-size: 14px;&quot;&gt;#include &amp;lt;iostream&amp;gt;&lt;/div&gt;&lt;div style=&quot;font-size: 14px;&quot;&gt;#include &amp;lt;cmath&amp;gt;&lt;/div&gt;&lt;div style=&quot;font-size: 14px;&quot;&gt;#include &amp;lt;chrono&amp;gt;&lt;/div&gt;&lt;div style=&quot;font-size: 14px;&quot;&gt;using namespace std;&lt;/div&gt;&lt;div style=&quot;font-size: 14px;&quot;&gt;&lt;br style=&quot;font-size: 14px;&quot;&gt;&lt;/div&gt;&lt;div style=&quot;font-size: 14px;&quot;&gt;unsigned int Factorial_Recursive(unsigned int n);&lt;/div&gt;&lt;div style=&quot;font-size: 14px;&quot;&gt;unsigned int Factorial_Direct(unsigned int n);&lt;/div&gt;&lt;div style=&quot;font-size: 14px;&quot;&gt;double Direct_Calculation(int n, double x);&lt;/div&gt;&lt;div style=&quot;font-size: 14px;&quot;&gt;double Recursive_Calculation(int n, double x);&lt;/div&gt;&lt;div style=&quot;font-size: 14px;&quot;&gt;&lt;br style=&quot;font-size: 14px;&quot;&gt;&lt;/div&gt;&lt;div style=&quot;font-size: 14px;&quot;&gt;int main() {&lt;/div&gt;&lt;div style=&quot;font-size: 14px;&quot;&gt;&amp;nbsp; &amp;nbsp; setlocale(LC_ALL, &quot;Russian&quot;);&lt;/div&gt;&lt;div style=&quot;font-size: 14px;&quot;&gt;&amp;nbsp; &amp;nbsp; int n;&lt;/div&gt;&lt;div style=&quot;font-size: 14px;&quot;&gt;&amp;nbsp; &amp;nbsp; double x;&lt;/div&gt;" style="strokeWidth=2;html=1;shape=mxgraph.flowchart.annotation_1;align=left;pointerEvents=1;fontSize=14;" vertex="1" parent="1">
          <mxGeometry x="510" y="10" width="310" height="240" as="geometry" />
        </mxCell>
        <mxCell id="2a4HdgNqKfl-SDhQHy7p-9" style="edgeStyle=orthogonalEdgeStyle;rounded=0;orthogonalLoop=1;jettySize=auto;html=1;entryX=0.5;entryY=0;entryDx=0;entryDy=0;" edge="1" parent="1" source="2a4HdgNqKfl-SDhQHy7p-3" target="2a4HdgNqKfl-SDhQHy7p-4">
          <mxGeometry relative="1" as="geometry" />
        </mxCell>
        <mxCell id="2a4HdgNqKfl-SDhQHy7p-3" value="cout &amp;lt;&amp;lt; &quot;Дана такая функция&quot; &amp;lt;&amp;lt; endl;" style="shape=parallelogram;perimeter=parallelogramPerimeter;whiteSpace=wrap;html=1;fixedSize=1;fontSize=14;" vertex="1" parent="1">
          <mxGeometry x="195" y="150" width="290" height="30" as="geometry" />
        </mxCell>
        <mxCell id="2a4HdgNqKfl-SDhQHy7p-10" style="edgeStyle=orthogonalEdgeStyle;rounded=0;orthogonalLoop=1;jettySize=auto;html=1;entryX=0.5;entryY=0;entryDx=0;entryDy=0;" edge="1" parent="1" source="2a4HdgNqKfl-SDhQHy7p-4" target="2a4HdgNqKfl-SDhQHy7p-5">
          <mxGeometry relative="1" as="geometry" />
        </mxCell>
        <mxCell id="2a4HdgNqKfl-SDhQHy7p-4" value="cout &amp;lt;&amp;lt; &quot;&amp;nbsp; &amp;nbsp; &amp;nbsp; &amp;nbsp; x^3&amp;nbsp; &amp;nbsp; &amp;nbsp; &amp;nbsp; &amp;nbsp;x^(2*n - 1)&quot; &amp;lt;&amp;lt; endl;" style="shape=parallelogram;perimeter=parallelogramPerimeter;whiteSpace=wrap;html=1;fixedSize=1;fontSize=14;" vertex="1" parent="1">
          <mxGeometry x="190" y="210" width="300" height="30" as="geometry" />
        </mxCell>
        <mxCell id="2a4HdgNqKfl-SDhQHy7p-11" style="edgeStyle=orthogonalEdgeStyle;rounded=0;orthogonalLoop=1;jettySize=auto;html=1;entryX=0.5;entryY=0;entryDx=0;entryDy=0;" edge="1" parent="1" source="2a4HdgNqKfl-SDhQHy7p-5" target="2a4HdgNqKfl-SDhQHy7p-6">
          <mxGeometry relative="1" as="geometry" />
        </mxCell>
        <mxCell id="2a4HdgNqKfl-SDhQHy7p-5" value="cout &amp;lt;&amp;lt; &quot;S = x + --- + ... + -----------&quot; &amp;lt;&amp;lt; endl;" style="shape=parallelogram;perimeter=parallelogramPerimeter;whiteSpace=wrap;html=1;fixedSize=1;fontSize=14;" vertex="1" parent="1">
          <mxGeometry x="185" y="270" width="310" height="30" as="geometry" />
        </mxCell>
        <mxCell id="2a4HdgNqKfl-SDhQHy7p-15" style="edgeStyle=orthogonalEdgeStyle;rounded=0;orthogonalLoop=1;jettySize=auto;html=1;entryX=0.5;entryY=0;entryDx=0;entryDy=0;" edge="1" parent="1" source="2a4HdgNqKfl-SDhQHy7p-6" target="2a4HdgNqKfl-SDhQHy7p-13">
          <mxGeometry relative="1" as="geometry" />
        </mxCell>
        <mxCell id="2a4HdgNqKfl-SDhQHy7p-6" value="cout &amp;lt;&amp;lt; &quot;&amp;nbsp; &amp;nbsp; &amp;nbsp; &amp;nbsp; &amp;nbsp;3!&amp;nbsp; &amp;nbsp; &amp;nbsp; &amp;nbsp; &amp;nbsp; (2*n - 1)&quot; &amp;lt;&amp;lt; endl;" style="shape=parallelogram;perimeter=parallelogramPerimeter;whiteSpace=wrap;html=1;fixedSize=1;fontSize=14;" vertex="1" parent="1">
          <mxGeometry x="190" y="330" width="300" height="30" as="geometry" />
        </mxCell>
        <mxCell id="2a4HdgNqKfl-SDhQHy7p-8" value="" style="endArrow=none;dashed=1;html=1;rounded=0;exitX=0;exitY=0.5;exitDx=0;exitDy=0;exitPerimeter=0;" edge="1" parent="1" source="2a4HdgNqKfl-SDhQHy7p-2">
          <mxGeometry width="50" height="50" relative="1" as="geometry">
            <mxPoint x="520" y="190" as="sourcePoint" />
            <mxPoint x="340" y="130" as="targetPoint" />
          </mxGeometry>
        </mxCell>
        <mxCell id="2a4HdgNqKfl-SDhQHy7p-12" style="edgeStyle=orthogonalEdgeStyle;rounded=0;orthogonalLoop=1;jettySize=auto;html=1;entryX=0.5;entryY=0;entryDx=0;entryDy=0;" edge="1" parent="1" source="2a4HdgNqKfl-SDhQHy7p-13" target="2a4HdgNqKfl-SDhQHy7p-14">
          <mxGeometry relative="1" as="geometry" />
        </mxCell>
        <mxCell id="2a4HdgNqKfl-SDhQHy7p-13" value="cout &amp;lt;&amp;lt; &quot;Введите целое, положительное число n - количество членов ряда: &quot;;" style="shape=parallelogram;perimeter=parallelogramPerimeter;whiteSpace=wrap;html=1;fixedSize=1;fontSize=14;" vertex="1" parent="1">
          <mxGeometry x="157.5" y="410" width="365" height="50" as="geometry" />
        </mxCell>
        <mxCell id="2a4HdgNqKfl-SDhQHy7p-17" style="edgeStyle=orthogonalEdgeStyle;rounded=0;orthogonalLoop=1;jettySize=auto;html=1;entryX=0.5;entryY=0;entryDx=0;entryDy=0;" edge="1" parent="1" source="2a4HdgNqKfl-SDhQHy7p-14" target="2a4HdgNqKfl-SDhQHy7p-16">
          <mxGeometry relative="1" as="geometry" />
        </mxCell>
        <mxCell id="2a4HdgNqKfl-SDhQHy7p-14" value="cin &amp;gt;&amp;gt; n;" style="shape=parallelogram;perimeter=parallelogramPerimeter;whiteSpace=wrap;html=1;fixedSize=1;fontSize=14;" vertex="1" parent="1">
          <mxGeometry x="285" y="480" width="110" height="30" as="geometry" />
        </mxCell>
        <mxCell id="2a4HdgNqKfl-SDhQHy7p-16" value="&lt;font style=&quot;font-size: 14px;&quot;&gt;while (n &amp;lt; 1);&lt;/font&gt;" style="rhombus;whiteSpace=wrap;html=1;" vertex="1" parent="1">
          <mxGeometry x="275" y="540" width="130" height="60" as="geometry" />
        </mxCell>
      </root>
    </mxGraphModel>
  </diagram>
</mxfile>
